HIERARCHY
ROOT Hips
{
	OFFSET 0.00000 0.00000 0.00000
	CHANNELS 6 Xposition Yposition Zposition Zrotation Yrotation Xrotation 
	JOINT LHipJoint
	{
		OFFSET 0 0 0
		CHANNELS 3 Zrotation Yrotation Xrotation
		JOINT LeftUpLeg
		{
			OFFSET 1.80322 -1.53100 0.99595
			CHANNELS 3 Zrotation Yrotation Xrotation
			JOINT LeftLeg
			{
				OFFSET 2.25177 -6.18669 0.00000
				CHANNELS 3 Zrotation Yrotation Xrotation
				JOINT LeftFoot
				{
					OFFSET 2.26601 -6.22582 0.00000
					CHANNELS 3 Zrotation Yrotation Xrotation
					JOINT LeftToeBase
					{
						OFFSET 0.23701 -0.65119 2.15848
						CHANNELS 3 Zrotation Yrotation Xrotation
						End Site
						{
							OFFSET 0.00000 -0.00000 1.12949
						}
					}
				}
			}
		}
	}
	JOINT RHipJoint
	{
		OFFSET 0 0 0
		CHANNELS 3 Zrotation Yrotation Xrotation
		JOINT RightUpLeg
		{
			OFFSET -1.93977 -1.53100 0.99595
			CHANNELS 3 Zrotation Yrotation Xrotation
			JOINT RightLeg
			{
				OFFSET -2.28036 -6.26523 0.00000
				CHANNELS 3 Zrotation Yrotation Xrotation
				JOINT RightFoot
				{
					OFFSET -2.25490 -6.19528 0.00000
					CHANNELS 3 Zrotation Yrotation Xrotation
					JOINT RightToeBase
					{
						OFFSET -0.28375 -0.77960 2.23137
						CHANNELS 3 Zrotation Yrotation Xrotation
						End Site
						{
							OFFSET -0.00000 -0.00000 1.17899
						}
					}
				}
			}
		}
	}
	JOINT LowerBack
	{
		OFFSET 0 0 0
		CHANNELS 3 Zrotation Yrotation Xrotation
		JOINT Spine
		{
			OFFSET -0.00088 2.12090 -0.02806
			CHANNELS 3 Zrotation Yrotation Xrotation
			JOINT Spine1
			{
				OFFSET -0.00286 2.09666 0.12974
				CHANNELS 3 Zrotation Yrotation Xrotation
				JOINT Neck
				{
					OFFSET 0 0 0
					CHANNELS 3 Zrotation Yrotation Xrotation
					JOINT Neck1
					{
						OFFSET 0.07328 1.83526 0.07290
						CHANNELS 3 Zrotation Yrotation Xrotation
						JOINT Head
						{
							OFFSET -0.06683 1.74974 -0.49542
							CHANNELS 3 Zrotation Yrotation Xrotation
							End Site
							{
								OFFSET -0.03398 1.85163 -0.17573
							}
						}
					}
				}
				JOINT LeftShoulder
				{
					OFFSET 0 0 0
					CHANNELS 3 Zrotation Yrotation Xrotation
					JOINT LeftArm
					{
						OFFSET 3.02113 1.18018 0.40602
						CHANNELS 3 Zrotation Yrotation Xrotation
						JOINT LeftForeArm
						{
							OFFSET 4.58538 -0.00000 -0.00000
							CHANNELS 3 Zrotation Yrotation Xrotation
							JOINT LeftHand
							{
								OFFSET 2.68935 -0.00000 -0.00000
								CHANNELS 3 Zrotation Yrotation Xrotation
								JOINT LeftFingerBase
								{
									OFFSET 0 0 0
									CHANNELS 3 Zrotation Yrotation Xrotation
									JOINT LeftHandIndex1
									{
										OFFSET 0.58506 -0.00000 -0.00000
										CHANNELS 3 Zrotation Yrotation Xrotation
										End Site
										{
											OFFSET 0.47169 -0.00000 -0.00000
										}
									}
								}
								JOINT LThumb
								{
									OFFSET 0 0 0
									CHANNELS 3 Zrotation Yrotation Xrotation
									End Site
									{
										OFFSET 0.47889 -0.00000 0.47889
									}
								}
							}
						}
					}
				}
				JOINT RightShoulder
				{
					OFFSET 0 0 0
					CHANNELS 3 Zrotation Yrotation Xrotation
					JOINT RightArm
					{
						OFFSET -2.95074 1.18843 0.31430
						CHANNELS 3 Zrotation Yrotation Xrotation
						JOINT RightForeArm
						{
							OFFSET -4.47450 -0.00000 -0.00000
							CHANNELS 3 Zrotation Yrotation Xrotation
							JOINT RightHand
							{
								OFFSET -2.93896 -0.00000 -0.00000
								CHANNELS 3 Zrotation Yrotation Xrotation
								JOINT RightFingerBase
								{
									OFFSET 0 0 0
									CHANNELS 3 Zrotation Yrotation Xrotation
									JOINT RightHandIndex1
									{
										OFFSET -0.40509 -0.00000 -0.00000
										CHANNELS 3 Zrotation Yrotation Xrotation
										End Site
										{
											OFFSET -0.32660 -0.00000 -0.00000
										}
									}
								}
								JOINT RThumb
								{
									OFFSET 0 0 0
									CHANNELS 3 Zrotation Yrotation Xrotation
									End Site
									{
										OFFSET -0.33158 -0.00000 0.33158
									}
								}
							}
						}
					}
				}
			}
		}
	}
}
MOTION
Frames: 13
Frame Time: .0083333
0.5038 15.2938 -3.6698 -5.4299 1.9657 13.4883 0.0000 0.0000 0.0000 -20.0555 -11.8005 -11.8872 3.2732 11.1247 32.7016 2.3386 10.1984 -33.9542 0.0252 -1.0252 -2.8182 0.0000 0.0000 0.0000 17.4760 10.3380 -34.3013 -8.8255 -16.6941 55.4845 -1.1632 -4.1631 -22.2667 -0.1233 2.2635 -6.2345 1.4165 1.2514 -3.5431 -0.4025 1.6591 -6.3116 -1.2150 0.7583 -4.4790 7.6627 0.5203 -17.7808 0.8643 -2.2959 35.8933 -1.3864 0.2408 15.6344 -0.0000 -0.0000 0.0000 -71.3257 19.9288 47.6405 85.4289 -59.9209 -56.0423 -0.0000 0.0000 -15.3140 7.7302 21.6680 2.8692 -7.1250 0.0000 -0.0000 -20.9313 50.6178 -3.0119 -0.0000 -0.0000 0.0000 72.5574 1.5950 66.6764 -62.8586 57.0248 -36.7296 0.0000 -0.0000 -10.7337 3.9693 -7.6516 -0.5293 7.1250 -0.0000 -0.0000 25.5239 -36.4463 5.8494
0.5269 15.2997 -3.7194 -5.4692 1.6596 13.6518 0.0000 0.0000 0.0000 -20.0896 -11.9094 -12.2085 3.2735 11.1252 32.7032 2.3321 10.2707 -33.9645 0.0184 -0.8768 -2.4100 0.0000 0.0000 0.0000 17.8019 10.1324 -33.6962 -8.7890 -16.6700 55.3577 -1.1982 -4.0351 -22.4928 -0.1316 2.3386 -6.4425 1.5238 1.2529 -3.6637 -0.3311 1.6609 -6.3671 -1.1990 0.7558 -4.4688 7.6769 0.6016 -17.7641 0.7470 -2.1297 35.7987 -1.4086 0.2904 15.5872 0.0000 -0.0000 0.0000 -71.7019 20.0474 47.6033 83.3592 -59.8327 -54.2521 -0.0000 0.0000 -14.7849 7.6585 21.5551 2.8283 -7.1250 0.0000 -0.0000 -20.9431 50.5011 -2.9518 0.0000 -0.0000 0.0000 72.9150 0.2022 65.9056 -61.2453 56.6327 -35.3792 0.0000 -0.0000 -10.6777 4.0544 -7.8203 -0.5526 7.1250 -0.0000 -0.0000 25.6429 -36.5927 5.7803
0.5485 15.3052 -3.7678 -5.4962 1.3518 13.8123 0.0000 0.0000 0.0000 -20.1307 -12.0162 -12.5295 3.2762 11.1293 32.7172 2.3246 10.3411 -33.9678 0.0131 -0.7388 -2.0302 0.0000 0.0000 0.0000 18.1006 9.9457 -33.0660 -8.7224 -16.6257 55.1252 -1.2346 -3.8857 -22.7159 -0.1416 2.4250 -6.6816 1.6233 1.2533 -3.7857 -0.2669 1.6608 -6.4191 -1.1862 0.7526 -4.4541 7.6905 0.6834 -17.7414 0.6351 -1.9646 35.7077 -1.4284 0.3406 15.5410 0.0000 0.0000 0.0000 -72.0911 20.1477 47.5351 81.2028 -59.7055 -52.3889 -0.0000 0.0000 -14.3172 7.6982 21.3293 2.8148 -7.1250 0.0000 -0.0000 -20.7967 50.2961 -2.8214 0.0000 0.0000 0.0000 73.2819 -1.1439 65.0813 -59.6093 56.2049 -34.0162 0.0000 -0.0000 -10.6044 4.0604 -7.9823 -0.5648 7.1250 -0.0000 -0.0000 25.6987 -36.7388 5.6936
0.5684 15.3104 -3.8145 -5.5135 1.0534 13.9737 0.0000 0.0000 0.0000 -20.1720 -12.1289 -12.8498 3.2803 11.1355 32.7384 2.3160 10.4088 -33.9640 0.0088 -0.6055 -1.6640 0.0000 0.0000 0.0000 18.3797 9.7719 -32.4154 -8.6266 -16.5614 54.7897 -1.2718 -3.7239 -22.9379 -0.1520 2.5127 -6.9247 1.7186 1.2501 -3.9152 -0.2093 1.6550 -6.4689 -1.1774 0.7466 -4.4331 7.7082 0.7664 -17.7170 0.5226 -1.7990 35.6234 -1.4493 0.3918 15.4982 0.0000 0.0000 0.0000 -72.4937 20.2252 47.4362 78.9433 -59.5330 -50.4396 -0.0000 0.0000 -13.9109 7.7461 21.1183 2.8058 -7.1250 0.0000 -0.0000 -20.6513 50.1062 -2.7007 0.0000 0.0000 0.0000 73.6582 -2.4416 64.2161 -57.9737 55.7453 -32.6606 0.0000 -0.0000 -10.5197 3.9918 -8.1526 -0.5670 7.1250 -0.0000 -0.0000 25.6993 -36.8979 5.5832
0.5868 15.3158 -3.8598 -5.5251 0.7709 14.1454 0.0000 0.0000 0.0000 -20.2057 -12.2571 -13.1786 3.2854 11.1434 32.7649 2.3062 10.4756 -33.9529 0.0054 -0.4756 -1.3068 0.0000 0.0000 0.0000 18.6441 9.6066 -31.7600 -8.5027 -16.4768 54.3539 -1.3087 -3.5630 -23.1553 -0.1645 2.6127 -7.2024 1.8143 1.2410 -4.0583 -0.1552 1.6407 -6.5220 -1.1724 0.7363 -4.4081 7.7271 0.8522 -17.6852 0.4057 -1.6278 35.5473 -1.4711 0.4454 15.4584 0.0000 -0.0000 0.0000 -72.9155 20.2800 47.3057 76.5752 -59.3079 -48.4008 -0.0000 0.0000 -13.5663 7.8003 20.9247 2.8009 -7.1250 0.0000 -0.0000 -20.5096 49.9331 -2.5906 0.0000 -0.0000 0.0000 74.0415 -3.6964 63.3206 -56.3668 55.2614 -31.3362 0.0000 -0.0000 -10.4498 3.8508 -8.3448 -0.5597 7.1250 -0.0000 -0.0000 25.6504 -37.0823 5.4428
0.6035 15.3213 -3.9034 -5.5354 0.5074 14.3239 0.0000 0.0000 0.0000 -20.2272 -12.3998 -13.5068 3.2908 11.1516 32.7929 2.2967 10.5353 -33.9382 0.0028 -0.3425 -0.9409 0.0000 0.0000 0.0000 18.9025 9.4434 -31.0966 -8.3515 -16.3718 53.8190 -1.3460 -3.4091 -23.3785 -0.1785 2.7218 -7.5051 1.9148 1.2256 -4.2150 -0.1043 1.6174 -6.5748 -1.1731 0.7211 -4.3754 7.7512 0.9418 -17.6511 0.2827 -1.4506 35.4781 -1.4954 0.5017 15.4219 0.0000 -0.0000 0.0000 -73.3530 20.3093 47.1431 74.1173 -59.0250 -46.2902 -0.0000 0.0000 -13.2792 7.8850 20.7465 2.8086 -7.1250 0.0000 -0.0000 -20.3477 49.7787 -2.4889 0.0000 -0.0000 0.0000 74.4362 -4.9026 62.3955 -54.7946 54.7553 -30.0482 0.0000 -0.0000 -10.3949 3.6447 -8.5410 -0.5420 7.1250 -0.0000 -0.0000 25.5518 -37.2756 5.2848
0.6190 15.3268 -3.9456 -5.5530 0.2534 14.5066 0.0000 0.0000 0.0000 -20.2318 -12.5551 -13.8308 3.2962 11.1598 32.8208 2.2877 10.5938 -33.9263 0.0010 -0.2014 -0.5535 0.0000 0.0000 0.0000 19.1612 9.2872 -30.4255 -8.1742 -16.2459 53.1878 -1.3857 -3.2599 -23.6205 -0.1935 2.8326 -7.8130 2.0322 1.2079 -4.3781 -0.0545 1.5900 -6.6287 -1.1844 0.7032 -4.3402 7.7815 1.0369 -17.6148 0.1487 -1.2634 35.4179 -1.5236 0.5619 15.3902 0.0000 0.0000 0.0000 -73.8067 20.3146 46.9465 71.5841 -58.6789 -44.1221 -0.0000 0.0000 -13.0405 7.9930 20.5995 2.8283 -7.1250 0.0000 -0.0000 -20.1796 49.6570 -2.4044 0.0000 0.0000 0.0000 74.8409 -6.0594 61.4422 -53.2717 54.2327 -28.8084 0.0000 -0.0000 -10.3459 3.4318 -8.7608 -0.5233 7.1250 -0.0000 -0.0000 25.4551 -37.4909 5.1134
0.6335 15.3324 -3.9861 -5.5775 0.0038 14.6803 0.0000 0.0000 0.0000 -20.2256 -12.7114 -14.1346 3.3008 11.1668 32.8444 2.2770 10.6628 -33.9118 0.0001 -0.0728 -0.1999 0.0000 0.0000 0.0000 19.4210 9.1328 -29.7340 -7.9724 -16.0989 52.4632 -1.4280 -3.1181 -23.8838 -0.2097 2.9487 -8.1358 2.1667 1.1888 -4.5364 -0.0060 1.5601 -6.6803 -1.2068 0.6832 -4.3051 7.8192 1.1376 -17.5744 0.0023 -1.0657 35.3659 -1.5566 0.6262 15.3622 0.0000 0.0000 0.0000 -74.2746 20.2993 46.7136 68.9996 -58.2662 -41.9190 -0.0000 0.0000 -12.8374 8.1219 20.4892 2.8597 -7.1250 0.0000 -0.0000 -20.0096 49.5726 -2.3398 0.0000 0.0000 0.0000 75.2541 -7.1657 60.4609 -51.7982 53.6955 -27.6168 0.0000 -0.0000 -10.2936 3.2443 -8.9786 -0.5069 7.1250 -0.0000 -0.0000 25.3777 -37.7028 4.9502
0.6468 15.3379 -4.0255 -5.6087 -0.2509 14.8541 0.0000 0.0000 0.0000 -20.2076 -12.8626 -14.4281 3.3040 11.1717 32.8611 2.2670 10.7285 -33.8994 0.0001 0.0589 0.1619 0.0000 0.0000 0.0000 19.6778 8.9938 -29.0358 -7.7485 -15.9312 51.6518 -1.4718 -2.9933 -24.1640 -0.2275 3.0701 -8.4739 2.3127 1.1708 -4.6929 0.0417 1.5311 -6.7347 -1.2366 0.6630 -4.2737 7.8677 1.2449 -17.5231 -0.1601 -0.8550 35.3203 -1.5959 0.6954 15.3360 -0.0000 0.0000 0.0000 -74.7546 20.2701 46.4405 66.3829 -57.7838 -39.6992 -0.0000 0.0000 -12.6378 8.2605 20.4250 2.9004 -7.1250 0.0000 -0.0000 -19.8519 49.5328 -2.3000 -0.0000 0.0000 0.0000 75.6691 -8.2239 59.4641 -50.3735 53.1450 -26.4727 0.0000 -0.0000 -10.1938 3.0924 -9.1880 -0.4942 7.1250 -0.0000 -0.0000 25.3257 -37.9045 4.8007
0.6592 15.3432 -4.0631 -5.6465 -0.5195 15.0201 0.0000 0.0000 0.0000 -20.1835 -12.9947 -14.7002 3.3051 11.1733 32.8664 2.2578 10.7969 -33.8936 0.0008 0.1882 0.5172 0.0000 0.0000 0.0000 19.9309 8.8709 -28.3211 -7.5049 -15.7427 50.7591 -1.5173 -2.8870 -24.4620 -0.2462 3.1928 -8.8160 2.4672 1.1556 -4.8508 0.0907 1.5051 -6.7847 -1.2698 0.6440 -4.2371 7.9274 1.3601 -17.4662 -0.3417 -0.6288 35.2801 -1.6426 0.7703 15.3124 -0.0000 -0.0000 0.0000 -75.2502 20.2254 46.1226 63.7390 -57.2267 -37.4691 -0.0000 0.0000 -12.4135 8.3839 20.4273 2.9446 -7.1250 0.0000 -0.0000 -19.7384 49.5535 -2.2962 -0.0000 -0.0000 0.0000 76.0749 -9.2280 58.4641 -49.0018 52.5849 -25.3792 0.0000 -0.0000 -10.0383 2.9804 -9.3818 -0.4863 7.1250 -0.0000 -0.0000 25.3003 -38.0890 4.6695
0.6706 15.3485 -4.0994 -5.6826 -0.8015 15.1817 0.0000 0.0000 0.0000 -20.1613 -13.1061 -14.9574 3.3035 11.1708 32.8582 2.2487 10.8661 -33.8885 0.0024 0.3161 0.8686 0.0000 0.0000 0.0000 20.1700 8.7633 -27.6000 -7.2446 -15.5344 49.7933 -1.5634 -2.8047 -24.7724 -0.2650 3.3118 -9.1481 2.6201 1.1408 -5.0059 0.1406 1.4791 -6.8354 -1.3012 0.6249 -4.2030 7.9942 1.4834 -17.3937 -0.5399 -0.3850 35.2416 -1.6944 0.8514 15.2876 0.0000 -0.0000 0.0000 -75.7614 20.1734 45.7570 61.0779 -56.5904 -35.2394 -0.0000 0.0000 -12.1431 8.4808 20.4680 2.9847 -7.1250 0.0000 -0.0000 -19.6668 49.6063 -2.3136 0.0000 -0.0000 0.0000 76.4642 -10.1902 57.4754 -47.6927 52.0215 -24.3433 0.0000 -0.0000 -9.8313 2.8795 -9.5537 -0.4783 7.1250 -0.0000 -0.0000 25.2767 -38.2529 4.5529
0.6810 15.3538 -4.1342 -5.7122 -1.0892 15.3393 0.0000 0.0000 0.0000 -20.1463 -13.1958 -15.2020 3.2990 11.1641 32.8352 2.2381 10.9411 -33.8794 0.0045 0.4354 1.1963 0.0000 0.0000 0.0000 20.3921 8.6618 -26.8748 -6.9698 -15.3064 48.7598 -1.6094 -2.7552 -25.0915 -0.2848 3.4321 -9.4841 2.7645 1.1231 -5.1651 0.1922 1.4487 -6.8798 -1.3263 0.6043 -4.1605 8.0696 1.6167 -17.3194 -0.7541 -0.1231 35.2019 -1.7513 0.9390 15.2638 0.0000 -0.0000 0.0000 -76.2892 20.1010 45.3416 58.4021 -55.8689 -33.0149 -0.0000 0.0000 -11.8219 8.5396 20.5407 3.0159 -7.1250 0.0000 -0.0000 -19.6448 49.6838 -2.3494 0.0000 -0.0000 0.0000 76.8311 -11.0978 56.5134 -46.4434 51.4563 -23.3623 0.0000 -0.0000 -9.5968 2.7200 -9.6801 -0.4577 7.1250 -0.0000 -0.0000 25.1914 -38.3804 4.4486
0.6902 15.3593 -4.1677 -5.7327 -1.3745 15.4932 0.0000 0.0000 0.0000 -20.1377 -13.2707 -15.4352 3.2921 11.1535 32.7993 2.2285 11.0066 -33.8698 0.0075 0.5606 1.5405 0.0000 0.0000 0.0000 20.5974 8.5625 -26.1489 -6.6833 -15.0593 47.6662 -1.6550 -2.7453 -25.4216 -0.3042 3.5463 -9.8036 2.8978 1.1001 -5.3266 0.2457 1.4108 -6.9208 -1.3433 0.5806 -4.1140 8.1524 1.7577 -17.2421 -0.9869 0.1549 35.1658 -1.8145 1.0322 15.2430 -0.0000 0.0000 0.0000 -76.8323 20.0114 44.8794 55.7194 -55.0570 -30.8048 -0.0000 0.0000 -11.4475 8.5573 20.6192 3.0333 -7.1250 0.0000 -0.0000 -19.6640 49.7605 -2.3901 -0.0000 0.0000 0.0000 77.1733 -11.9612 55.5898 -45.2662 50.8982 -22.4451 0.0000 -0.0000 -9.3684 2.4729 -9.7709 -0.4199 7.1250 -0.0000 -0.0000 25.0241 -38.4829 4.3452
